<?xml version="1.0" encoding="utf-8"?><svg xmlns="http://www.w3.org/2000/svg" xmlns:xlink="http://www.w3.org/1999/xlink" width="405" height="405" viewBox="0 0 405 405" style="background-color: #FFFFFF"><g style="fill: #000000"><rect x="15" y="150" width="15" height="15" id="square" style="fill-opacity: 1" /><rect x="15" y="255" width="15" height="15" id="square" style="fill-opacity: 1" /><rect x="30" y="135" width="15" height="15" id="square" style="fill-opacity: 1" /><rect x="30" y="150" width="15" height="15" id="square" style="fill-opacity: 1" /><rect x="30" y="180" width="15" height="15" id="square" style="fill-opacity: 1" /><rect x="30" y="195" width="15" height="15" id="square" style="fill-opacity: 1" /><rect x="30" y="210" width="15" height="15" id="square" style="fill-opacity: 1" /><rect x="30" y="225" width="15" height="15" id="square" style="fill-opacity: 1" /><rect x="30" y="240" width="15" height="15" id="square" style="fill-opacity: 1" /><rect x="30" y="255" width="15" height="15" id="square" style="fill-opacity: 1" /><rect x="45" y="150" width="15" height="15" id="square" style="fill-opacity: 1" /><rect x="45" y="165" width="15" height="15" id="square" style="fill-opacity: 1" /><rect x="45" y="180" width="15" height="15" id="square" style="fill-opacity: 1" /><rect x="45" y="225" width="15" height="15" id="square" style="fill-opacity: 1" /><rect x="45" y="240" width="15" height="15" id="square" style="fill-opacity: 1" /><rect x="60" y="135" width="15" height="15" id="square" style="fill-opacity: 1" /><rect x="60" y="150" width="15" height="15" id="square" style="fill-opacity: 1" /><rect x="60" y="180" width="15" height="15" id="square" style="fill-opacity: 1" /><rect x="60" y="210" width="15" height="15" id="square" style="fill-opacity: 1" /><rect x="60" y="240" width="15" height="15" id="square" style="fill-opacity: 1" /><rect x="75" y="165" width="15" height="15" id="square" style="fill-opacity: 1" /><rect x="75" y="195" width="15" height="15" id="square" style="fill-opacity: 1" /><rect x="75" y="225" width="15" height="15" id="square" style="fill-opacity: 1" /><rect x="75" y="255" width="15" height="15" id="square" style="fill-opacity: 1" /><rect x="90" y="135" width="15" height="15" id="square" style="fill-opacity: 1" /><rect x="90" y="165" width="15" height="15" id="square" style="fill-opacity: 1" /><rect x="90" y="210" width="15" height="15" id="square" style="fill-opacity: 1" /><rect x="90" y="240" width="15" height="15" id="square" style="fill-opacity: 1" /><rect x="90" y="255" width="15" height="15" id="square" style="fill-opacity: 1" /><rect x="105" y="135" width="15" height="15" id="square" style="fill-opacity: 1" /><rect x="105" y="165" width="15" height="15" id="square" style="fill-opacity: 1" /><rect x="105" y="195" width="15" height="15" id="square" style="fill-opacity: 1" /><rect x="105" y="225" width="15" height="15" id="square" style="fill-opacity: 1" /><rect x="105" y="255" width="15" height="15" id="square" style="fill-opacity: 1" /><rect x="120" y="195" width="15" height="15" id="square" style="fill-opacity: 1" /><rect x="120" y="225" width="15" height="15" id="square" style="fill-opacity: 1" /><rect x="135" y="15" width="15" height="15" id="square" style="fill-opacity: 1" /><rect x="135" y="30" width="15" height="15" id="square" style="fill-opacity: 1" /><rect x="135" y="45" width="15" height="15" id="square" style="fill-opacity: 1" /><rect x="135" y="60" width="15" height="15" id="square" style="fill-opacity: 1" /><rect x="135" y="75" width="15" height="15" id="square" style="fill-opacity: 1" /><rect x="135" y="105" width="15" height="15" id="square" style="fill-opacity: 1" /><rect x="135" y="120" width="15" height="15" id="square" style="fill-opacity: 1" /><rect x="135" y="135" width="15" height="15" id="square" style="fill-opacity: 1" /><rect x="135" y="150" width="15" height="15" id="square" style="fill-opacity: 1" /><rect x="135" y="165" width="15" height="15" id="square" style="fill-opacity: 1" /><rect x="135" y="195" width="15" height="15" id="square" style="fill-opacity: 1" /><rect x="135" y="210" width="15" height="15" id="square" style="fill-opacity: 1" /><rect x="135" y="240" width="15" height="15" id="square" style="fill-opacity: 1" /><rect x="135" y="255" width="15" height="15" id="square" style="fill-opacity: 1" /><rect x="135" y="270" width="15" height="15" id="square" style="fill-opacity: 1" /><rect x="135" y="300" width="15" height="15" id="square" style="fill-opacity: 1" /><rect x="135" y="330" width="15" height="15" id="square" style="fill-opacity: 1" /><rect x="135" y="360" width="15" height="15" id="square" style="fill-opacity: 1" /><rect x="150" y="15" width="15" height="15" id="square" style="fill-opacity: 1" /><rect x="150" y="30" width="15" height="15" id="square" style="fill-opacity: 1" /><rect x="150" y="45" width="15" height="15" id="square" style="fill-opacity: 1" /><rect x="150" y="75" width="15" height="15" id="square" style="fill-opacity: 1" /><rect x="150" y="90" width="15" height="15" id="square" style="fill-opacity: 1" /><rect x="150" y="120" width="15" height="15" id="square" style="fill-opacity: 1" /><rect x="150" y="150" width="15" height="15" id="square" style="fill-opacity: 1" /><rect x="150" y="210" width="15" height="15" id="square" style="fill-opacity: 1" /><rect x="150" y="225" width="15" height="15" id="square" style="fill-opacity: 1" /><rect x="150" y="270" width="15" height="15" id="square" style="fill-opacity: 1" /><rect x="150" y="300" width="15" height="15" id="square" style="fill-opacity: 1" /><rect x="150" y="360" width="15" height="15" id="square" style="fill-opacity: 1" /><rect x="165" y="15" width="15" height="15" id="square" style="fill-opacity: 1" /><rect x="165" y="30" width="15" height="15" id="square" style="fill-opacity: 1" /><rect x="165" y="45" width="15" height="15" id="square" style="fill-opacity: 1" /><rect x="165" y="60" width="15" height="15" id="square" style="fill-opacity: 1" /><rect x="165" y="105" width="15" height="15" id="square" style="fill-opacity: 1" /><rect x="165" y="150" width="15" height="15" id="square" style="fill-opacity: 1" /><rect x="165" y="180" width="15" height="15" id="square" style="fill-opacity: 1" /><rect x="165" y="195" width="15" height="15" id="square" style="fill-opacity: 1" /><rect x="165" y="240" width="15" height="15" id="square" style="fill-opacity: 1" /><rect x="165" y="255" width="15" height="15" id="square" style="fill-opacity: 1" /><rect x="165" y="285" width="15" height="15" id="square" style="fill-opacity: 1" /><rect x="165" y="300" width="15" height="15" id="square" style="fill-opacity: 1" /><rect x="165" y="330" width="15" height="15" id="square" style="fill-opacity: 1" /><rect x="165" y="360" width="15" height="15" id="square" style="fill-opacity: 1" /><rect x="165" y="375" width="15" height="15" id="square" style="fill-opacity: 1" /><rect x="180" y="30" width="15" height="15" id="square" style="fill-opacity: 1" /><rect x="180" y="75" width="15" height="15" id="square" style="fill-opacity: 1" /><rect x="180" y="90" width="15" height="15" id="square" style="fill-opacity: 1" /><rect x="180" y="150" width="15" height="15" id="square" style="fill-opacity: 1" /><rect x="180" y="165" width="15" height="15" id="square" style="fill-opacity: 1" /><rect x="180" y="180" width="15" height="15" id="square" style="fill-opacity: 1" /><rect x="180" y="225" width="15" height="15" id="square" style="fill-opacity: 1" /><rect x="180" y="255" width="15" height="15" id="square" style="fill-opacity: 1" /><rect x="180" y="375" width="15" height="15" id="square" style="fill-opacity: 1" /><rect x="195" y="30" width="15" height="15" id="square" style="fill-opacity: 1" /><rect x="195" y="60" width="15" height="15" id="square" style="fill-opacity: 1" /><rect x="195" y="75" width="15" height="15" id="square" style="fill-opacity: 1" /><rect x="195" y="90" width="15" height="15" id="square" style="fill-opacity: 1" /><rect x="195" y="105" width="15" height="15" id="square" style="fill-opacity: 1" /><rect x="195" y="135" width="15" height="15" id="square" style="fill-opacity: 1" /><rect x="195" y="150" width="15" height="15" id="square" style="fill-opacity: 1" /><rect x="195" y="180" width="15" height="15" id="square" style="fill-opacity: 1" /><rect x="195" y="210" width="15" height="15" id="square" style="fill-opacity: 1" /><rect x="195" y="225" width="15" height="15" id="square" style="fill-opacity: 1" /><rect x="195" y="270" width="15" height="15" id="square" style="fill-opacity: 1" /><rect x="195" y="285" width="15" height="15" id="square" style="fill-opacity: 1" /><rect x="195" y="300" width="15" height="15" id="square" style="fill-opacity: 1" /><rect x="195" y="315" width="15" height="15" id="square" style="fill-opacity: 1" /><rect x="195" y="345" width="15" height="15" id="square" style="fill-opacity: 1" /><rect x="195" y="360" width="15" height="15" id="square" style="fill-opacity: 1" /><rect x="195" y="375" width="15" height="15" id="square" style="fill-opacity: 1" /><rect x="210" y="15" width="15" height="15" id="square" style="fill-opacity: 1" /><rect x="210" y="75" width="15" height="15" id="square" style="fill-opacity: 1" /><rect x="210" y="90" width="15" height="15" id="square" style="fill-opacity: 1" /><rect x="210" y="135" width="15" height="15" id="square" style="fill-opacity: 1" /><rect x="210" y="165" width="15" height="15" id="square" style="fill-opacity: 1" /><rect x="210" y="195" width="15" height="15" id="square" style="fill-opacity: 1" /><rect x="210" y="270" width="15" height="15" id="square" style="fill-opacity: 1" /><rect x="210" y="300" width="15" height="15" id="square" style="fill-opacity: 1" /><rect x="210" y="330" width="15" height="15" id="square" style="fill-opacity: 1" /><rect x="210" y="360" width="15" height="15" id="square" style="fill-opacity: 1" /><rect x="225" y="15" width="15" height="15" id="square" style="fill-opacity: 1" /><rect x="225" y="45" width="15" height="15" id="square" style="fill-opacity: 1" /><rect x="225" y="60" width="15" height="15" id="square" style="fill-opacity: 1" /><rect x="225" y="105" width="15" height="15" id="square" style="fill-opacity: 1" /><rect x="225" y="120" width="15" height="15" id="square" style="fill-opacity: 1" /><rect x="225" y="135" width="15" height="15" id="square" style="fill-opacity: 1" /><rect x="225" y="225" width="15" height="15" id="square" style="fill-opacity: 1" /><rect x="225" y="240" width="15" height="15" id="square" style="fill-opacity: 1" /><rect x="225" y="255" width="15" height="15" id="square" style="fill-opacity: 1" /><rect x="225" y="285" width="15" height="15" id="square" style="fill-opacity: 1" /><rect x="225" y="300" width="15" height="15" id="square" style="fill-opacity: 1" /><rect x="225" y="315" width="15" height="15" id="square" style="fill-opacity: 1" /><rect x="225" y="330" width="15" height="15" id="square" style="fill-opacity: 1" /><rect x="225" y="360" width="15" height="15" id="square" style="fill-opacity: 1" /><rect x="225" y="375" width="15" height="15" id="square" style="fill-opacity: 1" /><rect x="240" y="15" width="15" height="15" id="square" style="fill-opacity: 1" /><rect x="240" y="60" width="15" height="15" id="square" style="fill-opacity: 1" /><rect x="240" y="75" width="15" height="15" id="square" style="fill-opacity: 1" /><rect x="240" y="135" width="15" height="15" id="square" style="fill-opacity: 1" /><rect x="240" y="195" width="15" height="15" id="square" style="fill-opacity: 1" /><rect x="240" y="225" width="15" height="15" id="square" style="fill-opacity: 1" /><rect x="240" y="240" width="15" height="15" id="square" style="fill-opacity: 1" /><rect x="240" y="270" width="15" height="15" id="square" style="fill-opacity: 1" /><rect x="240" y="300" width="15" height="15" id="square" style="fill-opacity: 1" /><rect x="240" y="315" width="15" height="15" id="square" style="fill-opacity: 1" /><rect x="240" y="375" width="15" height="15" id="square" style="fill-opacity: 1" /><rect x="255" y="15" width="15" height="15" id="square" style="fill-opacity: 1" /><rect x="255" y="45" width="15" height="15" id="square" style="fill-opacity: 1" /><rect x="255" y="105" width="15" height="15" id="square" style="fill-opacity: 1" /><rect x="255" y="120" width="15" height="15" id="square" style="fill-opacity: 1" /><rect x="255" y="165" width="15" height="15" id="square" style="fill-opacity: 1" /><rect x="255" y="195" width="15" height="15" id="square" style="fill-opacity: 1" /><rect x="255" y="210" width="15" height="15" id="square" style="fill-opacity: 1" /><rect x="255" y="225" width="15" height="15" id="square" style="fill-opacity: 1" /><rect x="255" y="345" width="15" height="15" id="square" style="fill-opacity: 1" /><rect x="270" y="135" width="15" height="15" id="square" style="fill-opacity: 1" /><rect x="270" y="330" width="15" height="15" id="square" style="fill-opacity: 1" /><rect x="285" y="135" width="15" height="15" id="square" style="fill-opacity: 1" /><rect x="285" y="165" width="15" height="15" id="square" style="fill-opacity: 1" /><rect x="285" y="180" width="15" height="15" id="square" style="fill-opacity: 1" /><rect x="285" y="195" width="15" height="15" id="square" style="fill-opacity: 1" /><rect x="285" y="210" width="15" height="15" id="square" style="fill-opacity: 1" /><rect x="285" y="225" width="15" height="15" id="square" style="fill-opacity: 1" /><rect x="285" y="345" width="15" height="15" id="square" style="fill-opacity: 1" /><rect x="285" y="360" width="15" height="15" id="square" style="fill-opacity: 1" /><rect x="285" y="375" width="15" height="15" id="square" style="fill-opacity: 1" /><rect x="300" y="180" width="15" height="15" id="square" style="fill-opacity: 1" /><rect x="300" y="225" width="15" height="15" id="square" style="fill-opacity: 1" /><rect x="300" y="330" width="15" height="15" id="square" style="fill-opacity: 1" /><rect x="315" y="135" width="15" height="15" id="square" style="fill-opacity: 1" /><rect x="315" y="180" width="15" height="15" id="square" style="fill-opacity: 1" /><rect x="315" y="240" width="15" height="15" id="square" style="fill-opacity: 1" /><rect x="315" y="345" width="15" height="15" id="square" style="fill-opacity: 1" /><rect x="315" y="360" width="15" height="15" id="square" style="fill-opacity: 1" /><rect x="315" y="375" width="15" height="15" id="square" style="fill-opacity: 1" /><rect x="330" y="135" width="15" height="15" id="square" style="fill-opacity: 1" /><rect x="330" y="150" width="15" height="15" id="square" style="fill-opacity: 1" /><rect x="330" y="165" width="15" height="15" id="square" style="fill-opacity: 1" /><rect x="330" y="195" width="15" height="15" id="square" style="fill-opacity: 1" /><rect x="330" y="210" width="15" height="15" id="square" style="fill-opacity: 1" /><rect x="330" y="240" width="15" height="15" id="square" style="fill-opacity: 1" /><rect x="330" y="285" width="15" height="15" id="square" style="fill-opacity: 1" /><rect x="330" y="315" width="15" height="15" id="square" style="fill-opacity: 1" /><rect x="330" y="330" width="15" height="15" id="square" style="fill-opacity: 1" /><rect x="330" y="345" width="15" height="15" id="square" style="fill-opacity: 1" /><rect x="330" y="360" width="15" height="15" id="square" style="fill-opacity: 1" /><rect x="330" y="375" width="15" height="15" id="square" style="fill-opacity: 1" /><rect x="345" y="135" width="15" height="15" id="square" style="fill-opacity: 1" /><rect x="345" y="150" width="15" height="15" id="square" style="fill-opacity: 1" /><rect x="345" y="165" width="15" height="15" id="square" style="fill-opacity: 1" /><rect x="345" y="210" width="15" height="15" id="square" style="fill-opacity: 1" /><rect x="345" y="225" width="15" height="15" id="square" style="fill-opacity: 1" /><rect x="345" y="255" width="15" height="15" id="square" style="fill-opacity: 1" /><rect x="345" y="330" width="15" height="15" id="square" style="fill-opacity: 1" /><rect x="345" y="345" width="15" height="15" id="square" style="fill-opacity: 1" /><rect x="345" y="375" width="15" height="15" id="square" style="fill-opacity: 1" /><rect x="360" y="135" width="15" height="15" id="square" style="fill-opacity: 1" /><rect x="360" y="195" width="15" height="15" id="square" style="fill-opacity: 1" /><rect x="360" y="210" width="15" height="15" id="square" style="fill-opacity: 1" /><rect x="360" y="240" width="15" height="15" id="square" style="fill-opacity: 1" /><rect x="360" y="255" width="15" height="15" id="square" style="fill-opacity: 1" /><rect x="360" y="270" width="15" height="15" id="square" style="fill-opacity: 1" /><rect x="360" y="300" width="15" height="15" id="square" style="fill-opacity: 1" /><rect x="360" y="315" width="15" height="15" id="square" style="fill-opacity: 1" /><rect x="360" y="330" width="15" height="15" id="square" style="fill-opacity: 1" /><rect x="360" y="375" width="15" height="15" id="square" style="fill-opacity: 1" /><rect x="375" y="135" width="15" height="15" id="square" style="fill-opacity: 1" /><rect x="375" y="150" width="15" height="15" id="square" style="fill-opacity: 1" /><rect x="375" y="165" width="15" height="15" id="square" style="fill-opacity: 1" /><rect x="375" y="195" width="15" height="15" id="square" style="fill-opacity: 1" /><rect x="375" y="225" width="15" height="15" id="square" style="fill-opacity: 1" /><rect x="375" y="300" width="15" height="15" id="square" style="fill-opacity: 1" /><rect x="375" y="315" width="15" height="15" id="square" style="fill-opacity: 1" /><rect x="375" y="330" width="15" height="15" id="square" style="fill-opacity: 1" /><rect x="375" y="345" width="15" height="15" id="square" style="fill-opacity: 1" /><rect x="375" y="360" width="15" height="15" id="square" style="fill-opacity: 1" /><rect x="375" y="375" width="15" height="15" id="square" style="fill-opacity: 1" /></g><path d="M262.5, 262.5h60 v60 h-60 Z" fill="none" stroke="#000000" stroke-width="15" clip-path="url(#alignment66bcb4e42b896)" /><defs><clipPath id="alignment66bcb4e42b896"><rect x="0" y="0" width="100%" height="100%" id="square" style="fill: #FFFFFF; fill-opacity: 1" /></clipPath></defs><rect x="285" y="285" width="15" height="15" id="square" style="fill: #000000; fill-opacity: 1" /><path d="M22.5, 22.5h90 v90 h-90 Z" fill="none" stroke="#000000" stroke-width="15" clip-path="url(#finder66bcb4e42b8ef)" /><defs><clipPath id="finder66bcb4e42b8ef"><rect x="0" y="0" width="100%" height="100%" id="square" style="fill: #FFFFFF; fill-opacity: 1" /></clipPath></defs><rect x="45" y="45" width="45" height="45" id="square" style="fill: #000000; fill-opacity: 1" /><path d="M292.5, 22.5h90 v90 h-90 Z" fill="none" stroke="#000000" stroke-width="15" clip-path="url(#finder66bcb4e42b900)" /><defs><clipPath id="finder66bcb4e42b900"><rect x="0" y="0" width="100%" height="100%" id="square" style="fill: #FFFFFF; fill-opacity: 1" /></clipPath></defs><rect x="315" y="45" width="45" height="45" id="square" style="fill: #000000; fill-opacity: 1" /><path d="M22.5, 292.5h90 v90 h-90 Z" fill="none" stroke="#000000" stroke-width="15" clip-path="url(#finder66bcb4e42b90c)" /><defs><clipPath id="finder66bcb4e42b90c"><rect x="0" y="0" width="100%" height="100%" id="square" style="fill: #FFFFFF; fill-opacity: 1" /></clipPath></defs><rect x="45" y="315" width="45" height="45" id="square" style="fill: #000000; fill-opacity: 1" /></svg>